<?xml version="1.0" standalone="no"?><svg xmlns="http://www.w3.org/2000/svg" viewBox="0 0 1440 320"><path fill="#6F24E9" fill-opacity="1" d="M0,0L34.3,32C68.6,64,137,128,206,181.3C274.3,235,343,277,411,245.3C480,213,549,107,617,69.3C685.7,32,754,64,823,112C891.4,160,960,224,1029,234.7C1097.1,245,1166,203,1234,160C1302.9,117,1371,75,1406,53.3L1440,32L1440,320L1405.7,320C1371.4,320,1303,320,1234,320C1165.7,320,1097,320,1029,320C960,320,891,320,823,320C754.3,320,686,320,617,320C548.6,320,480,320,411,320C342.9,320,274,320,206,320C137.1,320,69,320,34,320L0,320Z" style="--darkreader-inline-fill: #2f1298;" data-darkreader-inline-fill=""></path></svg>